<?xml version="1.0" encoding="utf-8"?>
<!-- Generator: Adobe Illustrator 19.2.1, SVG Export Plug-In . SVG Version: 6.00 Build 0)  -->
<svg version="1.1" id="layer" xmlns="http://www.w3.org/2000/svg" xmlns:xlink="http://www.w3.org/1999/xlink" x="0px" y="0px"
	 viewBox="0 0 652 652" style="enable-background:new 0 0 652 652;" xml:space="preserve">
<style type="text/css">
	.st0{fill:url(#SVGID_1_);}
</style>
<g>
	<g>
		
			<linearGradient id="SVGID_1_" gradientUnits="userSpaceOnUse" x1="144.0917" y1="506.7983" x2="497.3083" y2="153.5817" gradientTransform="matrix(1 0 0 -1 0 651.89)">
			<stop  offset="0" style="stop-color:#0C4270"/>
			<stop  offset="0.25" style="stop-color:#0C4270"/>
			<stop  offset="1" style="stop-color:#091932"/>
		</linearGradient>
		<path id="SVGID_4_" class="st0" d="M324.8,342.1l-0.8,2.4l3.3,0.8c0.8,0,0.8,0.8,0.8,1.6v21.2c0,0.8,0,0.8-0.8,0.8h-4.1v2.4H337
			v-2.4l-4.1-0.8c-0.8,0-0.8,0-0.8-0.8v-26.1h-7.3V342.1z M358.2,342.1l-0.8,2.4l4.1,0.8l-9,23.6l-9-23.6l4.1-0.8v-2.4h-11.4
			l-0.8,2.4l2.4,0.8c0.8,0,0.8,0,1.6,0.8l9.8,26.1h4.1l9.8-26.1c0-0.8,0.8-0.8,1.6-0.8h1.6v-2.4h-8.1V342.1z M445.3,342.1l-0.8,2.4
			l3.3,0.8c0.8,0,0.8,0.8,0.8,1.6v21.2c0,0.8,0,0.8-0.8,0.8h-4.1v2.4h13.8v-2.4l-4.1,0c-0.8,0-0.8,0-0.8-0.8v-26.1H445.3z
			 M499.9,342.1l-0.8,2.4l4.1,0.8l-9,22l-8.1-22l4.1-0.8v-2.4h-11.4l-0.8,2.4l2.4,0.8c0.8,0,0.8,0,1.6,0.8l10.6,25.2l-4.1,9
			c0,0.8-0.8,0.8-1.6,1.6l-4.1,0.8v2.4h14.7v-2.4l-4.9-1.6l14.7-35.8c0-0.8,0.8-0.8,1.6-0.8h1.6v-2.4H499.9z M296.3,345.3
			L296.3,345.3l-0.8-4.1h-6.5l-0.8,2.4l3.3,0.8c0.8,0,0.8,0.8,0.8,1.6v21.2c0,0.8,0,0.8-0.8,0.8h-3.3v2.4h12.2v-2.4l-3.3-0.8
			c-0.8,0-0.8,0-0.8-0.8v-18.7c1.6-1.6,5.7-4.1,10.6-4.1c4.1,0,5.7,2.4,5.7,9v13.8c0,0.8,0,0.8-0.8,0.8h-3.3v2.4h12.2v-2.4l-3.3-0.8
			c-0.8,0-0.8,0-0.8-0.8v-15.5c0-6.5-2.4-11.4-9-11.4C303.6,341.2,299.5,343.7,296.3,345.3 M381.8,344.5c4.1,0,7.3,2.4,7.3,9.8
			h-16.3C373.6,346.9,377.7,344.5,381.8,344.5 M368.7,356.7c0,9,3.3,15.5,13.8,15.5c4.1,0,7.3-0.8,9.8-2.4l-1.6-3.3
			c-2.4,1.6-4.9,2.4-8.1,2.4c-7.3,0-9.8-4.9-9.8-11.4h20.4c0-0.8,0-1.6,0-2.4c0-9.8-4.9-13.8-11.4-13.8
			C374.4,341.2,368.7,346.1,368.7,356.7 M404.6,345.3v-3.3h-6.5l-0.8,2.4l3.3,0.8c0.8,0,0.8,0.8,0.8,1.6v21.2c0,0.8,0,0.8-0.8,0.8
			h-3.3v2.4h13.8v-2.4l-4.9-0.8c-0.8,0-0.8,0-0.8-0.8v-18.7c1.6-1.6,4.9-4.1,8.1-4.1c0.8,0,0.8,0,0.8,0.8l0.8,4.1h3.3v-8.1
			c-0.8,0-2.4-0.8-4.1-0.8C409.5,341.2,407,343.7,404.6,345.3 M420.9,350.2c0,6.5,4.9,7.3,9.8,8.1c4.1,0.8,7.3,1.6,7.3,5.7
			c0,3.3-2.4,4.9-7.3,4.9c-3.3,0-5.7-0.8-6.5-0.8c-0.8,0-0.8,0-0.8-0.8l-0.8-4.1h-3.3v7.3c0.8,0.8,5.7,1.6,10.6,1.6
			c5.7,0,11.4-2.4,11.4-9s-4.9-7.3-9.8-9c-4.1-0.8-7.3-1.6-7.3-5.7c0-2.4,1.6-4.9,6.5-4.9c2.4,0,4.1,0.8,4.9,0.8
			c0.8,0,0.8,0.8,0.8,0.8l0.8,4.1h3.3v-7.3c-0.8-0.8-4.9-1.6-9-1.6C425.7,341.2,420.9,343.7,420.9,350.2 M465.7,334.7
			c-0.8,5.7-1.6,7.3-6.5,8.1v2.4h4.1c0.8,0,0.8,0,0.8,0.8v18.7c0,4.9,2.4,7.3,7.3,7.3c2.4,0,5.7-0.8,7.3-1.6l-0.8-2.4
			c-1.6,0.8-4.1,0.8-5.7,0.8c-3.3,0-4.1-1.6-4.1-4.9v-18.7h9v-3.3h-9c-0.8,0-0.8,0-0.8-0.8v-6.5
			C467.3,334.7,465.7,334.7,465.7,334.7z M272.7,329v3.3h4.1c0.8,0,0.8,0,0.8,0.8v24.4c0,8.1-4.1,11.4-10.6,11.4
			c-7.3,0-11.4-3.3-11.4-11.4v-24.4c0-0.8,0-0.8,0.8-0.8l4.1-0.8V329h-13v3.3h4.1c0.8,0,0.8,0,0.8,0.8v24.4
			c0,9.8,4.1,14.7,14.7,14.7c9.8,0,15.5-4.9,15.5-14.7v-24.4c0-0.8,0-0.8,0.8-0.8l4.1-0.8V329C287.3,329,272.7,329,272.7,329z
			 M326.4,331.5c0,1.6,0.8,3.3,3.3,3.3c1.6,0,3.3-0.8,3.3-3.3c0-1.6-0.8-3.3-3.3-3.3C328,328.2,326.4,329.8,326.4,331.5
			 M446.9,331.5c0,1.6,0.8,3.3,3.3,3.3c1.6,0,3.3-0.8,3.3-3.3c0-1.6-0.8-3.3-3.3-3.3S446.9,329.8,446.9,331.5 M297.9,288.3
			L297.9,288.3l-1.6-4.9h-10.6l-0.8,4.9l3.3,0.8c0.8,0,0.8,0.8,0.8,1.6v17.9c0,0.8,0,0.8-0.8,0.8h-2.4v4.9h19.5v-4.9l-5.7-0.8
			c-0.8,0-0.8,0-0.8-0.8v-16.3c0.8-0.8,2.4-2.4,4.1-2.4c0.8,0,0.8,0,0.8,0.8l0.8,3.3h7.3v-9.8c-0.8,0-4.1-0.8-4.9-0.8
			C302,282.6,299.5,285.1,297.9,288.3 M322.3,305.4c0-2.4,1.6-3.3,4.9-3.3h4.1v4.9c-1.6,0.8-3.3,2.4-5.7,2.4
			C324,308.7,322.3,307.9,322.3,305.4 M314.2,292.4l8.1,0.8c0-3.3,1.6-4.1,4.1-4.1c4.1,0,4.1,1.6,4.1,4.9v3.3l-7.3,0.8
			c-7.3,0.8-11.4,3.3-11.4,9c0,4.1,0.8,9,9,9c4.9,0,8.1-1.6,9.8-4.1l0,0l0.8,3.3h11.4v-4.9l-3.3-0.8c-0.8,0-0.8,0-0.8-0.8V294
			c0-8.1-4.1-10.6-13-10.6C322.3,282.6,314.2,284.2,314.2,292.4 M358.2,286.7L358.2,286.7l-0.8-3.3h-10.6l-0.8,4.9l3.3,0.8
			c0.8,0,0.8,0.8,0.8,1.6v17.9c0,0.8,0,0.8-0.8,0.8h-2.4v4.9H363v-4.9l-3.3-0.8c-0.8,0-0.8,0-0.8-0.8v-16.3c1.6-0.8,4.1-2.4,6.5-2.4
			c3.3,0,3.3,2.4,3.3,5.7v19.5h13v-4.9l-3.3-0.8c-0.8,0-0.8,0-0.8-0.8v-15.5c0-6.5-2.4-10.6-9-10.6
			C364.7,282.6,361.4,284.2,358.2,286.7 M438.8,289.1c2.4,0,4.1,1.6,4.9,6.5h-9.8C433.9,290.8,436.3,289.1,438.8,289.1 M424.1,298.9
			c0,9.8,4.1,16.3,15.5,16.3c4.9,0,9-1.6,12.2-3.3l-2.4-5.7c-4.1,1.6-6.5,2.4-9,2.4c-4.9,0-6.5-2.4-7.3-7.3h18.7c0-0.8,0-3.3,0-4.1
			c0-10.6-5.7-14.7-13-14.7C430.6,282.6,424.1,288.3,424.1,298.9 M245,292.4c0,13.8,6.5,22.8,21.2,22.8c5.7,0,11.4-0.8,15.5-3.3
			v-11.4h-7.3l-0.8,5.7c0,0.8,0,0.8-0.8,1.6c-1.6,0.8-4.1,0.8-5.7,0.8c-7.3,0-12.2-4.9-12.2-15.5c0-10.6,4.9-15.5,12.2-15.5
			c1.6,0,4.1,0,5.7,0.8c0.8,0,0.8,0.8,0.8,0.8l0.8,5.7l6.5,0.8v-12.2c-3.3-2.4-9-3.3-13.8-3.3C252.3,270.4,245,280.2,245,292.4
			 M456.7,269.6l-0.8,4.9l3.3,0.8c0.8,0,0.8,0.8,0.8,1.6v31.8c0,0.8,0,0.8-0.8,0.8l-3.3,0.8v4.9H473v-4.9l-3.3-0.8
			c-0.8,0-0.8,0-0.8-0.8v-39.1H456.7z M485.2,298.9c0-5.7,1.6-9.8,6.5-9.8c1.6,0,4.1,0.8,4.9,1.6v13.8c-1.6,1.6-4.1,2.4-5.7,2.4
			C486.8,308.7,485.2,305.4,485.2,298.9 M493.3,269.6l-0.8,4.9l3.3,0.8c0.8,0,0.8,0.8,0.8,1.6v9c-2.4-1.6-4.9-3.3-8.1-3.3
			c-6.5,0-13,4.9-13,17.1c0,11.4,4.9,16.3,11.4,16.3c4.1,0,7.3-1.6,9.8-4.1h0.8l0.8,3.3h11.4v-4.9l-3.3-0.8c-0.8,0-0.8,0-0.8-0.8
			v-39.1H493.3z M389.1,280.2v3.3h-4.9v5.7h4.1c0.8,0,0.8,0,0.8,0.8v17.9c0,0.8,0,1.6-0.8,1.6l-3.3,0.8v4.9h18.7v-4.9l-4.1-0.8
			c-0.8,0-0.8,0-0.8-1.6v-18.7h9.8c0.8,0,0.8,0,0.8,0.8v24.4h13v-4.9l-3.3-0.8c-0.8,0-0.8,0-0.8-0.8v-24.4h-18.7
			c-0.8,0-0.8,0-0.8-0.8v-4.1c0-3.3,1.6-4.9,5.7-4.9c4.1,0,4.9,0.8,4.9,4.9l9-0.8c0-8.1-5.7-9.8-13-9.8
			C394,268.8,389.1,271.2,389.1,280.2 M241.7,134.4c-24.4,10.6-46.4,25.2-64.3,44c-18.7,18.7-33.4,40.7-44,64.3
			c-10.6,24.4-16.3,51.3-16.3,79c0,28.5,5.7,54.6,16.3,79s25.2,46.4,44,64.3c18.7,18.7,40.7,33.4,64.3,44
			c24.4,10.6,51.3,16.3,79,16.3c27.7,0,54.6-5.7,79-16.3c24.4-10.6,46.4-25.2,64.3-44l-57.8-57.8c-11.4,11.4-24.4,20.4-39.1,26.1
			c-14.7,6.5-30.9,9.8-47.2,9.8s-32.6-3.3-47.2-9.8c-14.7-6.5-27.7-15.5-39.1-26.1c-11.4-11.4-20.4-24.4-26.1-39.1
			c-6.5-14.7-9.8-30.9-9.8-47.2c0-17.1,3.3-32.6,9.8-47.2C214,259,223,246,233.6,234.6c11.4-11.4,24.4-20.4,39.1-26.1
			c14.7-6.5,30.9-9.8,47.2-9.8s32.6,3.3,47.2,9.8c14.7,6.5,27.7,15.5,39.1,26.1l57.8-57.8c-18.7-18.7-40.7-33.4-64.3-44
			c-24.4-10.6-51.3-16.3-79-16.3C293,116.5,266.1,123.8,241.7,134.4 M82.1,321.7c0-131.1,106.7-238.6,238.6-238.6
			c131.1,0,238.6,106.7,238.6,238.6c0,131.1-107.5,238.6-238.6,238.6C188.8,560.3,82.1,452.8,82.1,321.7 M70.7,321.7
			c0,137.6,112.4,250,250,250s250-112.4,250-250s-112.4-250-250-250S70.7,184.1,70.7,321.7"/>
	</g>
</g>
</svg>
